<svg xmlns="http://www.w3.org/2000/svg" xmlns:xlink="http://www.w3.org/1999/xlink" viewBox="0 0 434.03 303.23"><defs><style>.cls-1,.cls-14,.cls-17,.cls-21,.cls-24,.cls-9{fill:none;}.cls-2{fill:#ff7129;}.cls-3{fill:#f5f5f5;}.cls-4,.cls-5{fill:#d6d6d6;}.cls-4{opacity:0.5;}.cls-6{fill:#1282d6;}.cls-7{fill:#3897e9;}.cls-8{fill:#262626;}.cls-14,.cls-24,.cls-9{stroke:#262626;}.cls-14,.cls-17,.cls-21,.cls-24,.cls-9{stroke-linecap:round;stroke-linejoin:round;}.cls-10{fill:#fec02d;}.cls-11{fill:#eaa418;}.cls-12{fill:#f7a99c;}.cls-13{fill:#ff7769;}.cls-14{stroke-width:1.35px;}.cls-15{fill:#fdb6d6;}.cls-16{fill:#ff94ca;}.cls-17{stroke:#fff;}.cls-18{fill:#374acc;}.cls-19{fill:#4450e4;}.cls-20{fill:#5d6ff4;}.cls-21{stroke:#ff7129;}.cls-22{fill:#94e261;}.cls-23{clip-path:url(#clip-path);}.cls-24{stroke-width:0.5px;}</style><clipPath id="clip-path"><path class="cls-1" d="M404.7,253.92H377.19V225a13.76,13.76,0,0,1,13.75-13.76h0A13.76,13.76,0,0,1,404.7,225Z"/></clipPath></defs><g id="Layer_2" data-name="Layer 2"><g id="OBJECT"><path class="cls-2" d="M426.36,303.23H28.29a7.66,7.66,0,0,1-7.67-7.67h0a7.66,7.66,0,0,1,7.67-7.67H426.36a7.67,7.67,0,0,1,7.67,7.67h0A7.67,7.67,0,0,1,426.36,303.23Z"/><rect class="cls-3" x="115.74" width="294.43" height="211.21" rx="22.11"/><path class="cls-4" d="M137.85,0H388.06a22.11,22.11,0,0,1,22.11,22.11v10a0,0,0,0,1,0,0H115.74a0,0,0,0,1,0,0v-10A22.11,22.11,0,0,1,137.85,0Z"/><path class="cls-3" d="M360.9,20.9H186.73a4.85,4.85,0,0,1-4.85-4.85h0a4.85,4.85,0,0,1,4.85-4.85H360.9a4.85,4.85,0,0,1,4.85,4.85h0A4.85,4.85,0,0,1,360.9,20.9Z"/><path class="cls-3" d="M136.88,16.05a4,4,0,1,1-4-4A4,4,0,0,1,136.88,16.05Z"/><path class="cls-3" d="M151.67,16.05a4,4,0,1,1-4-4A4,4,0,0,1,151.67,16.05Z"/><path class="cls-3" d="M166.21,16.05a4,4,0,1,1-4-4A4,4,0,0,1,166.21,16.05Z"/><polygon class="cls-5" points="283.97 78.34 259.08 103.23 234.18 78.34 219.16 93.36 244.06 118.25 219.16 143.15 234.18 158.17 259.08 133.28 283.97 158.17 298.99 143.15 274.1 118.25 298.99 93.36 283.97 78.34"/><path class="cls-6" d="M362.42,287.89h-102l8.06-115.35a13.56,13.56,0,0,1,13.33-12.45h77a11.46,11.46,0,0,1,11.59,12.45Z"/><path class="cls-7" d="M347.42,287.89h-102l8.06-115.35a13.56,13.56,0,0,1,13.33-12.45h77a11.46,11.46,0,0,1,11.59,12.45Z"/><path class="cls-6" d="M306.1,160.09a19,19,0,0,1,5.94,9.46c1.28,5.24.18,12.24.18,12.3h0c2,2.34,4.48,5.48,7.17,9.36a143.05,143.05,0,0,1,10.26,17.65c5.29,11.2,13.86,29.35,9.86,48.66-3.07,14.8-13.53,30.37-13.53,30.37H268l7.1-127.82Z"/><path class="cls-8" d="M197.56,87.73c.28-.91,4.95-15.26,15.91-20.14A34.36,34.36,0,0,1,224.63,65a33.15,33.15,0,0,1,6.53.45s7.85,1,13.57,5c10.07,7.14,15.9,25,14.83,40.56-.38,5.53-1.69,11.2,1.9,15.45,1.94,2.29,5.15,3.05,9.72,4.45,9.47,2.9,25.07,6.57,31.33,19.26s7,30.57,2.91,35.47-102.63,4.43-106.12.61-9.91-22.32-10.67-37c-.68-13,8.46-18.44,10.67-34.52A69.84,69.84,0,0,0,197.56,87.73Z"/><path class="cls-9" d="M253.75,86.31a83.4,83.4,0,0,1,6.57,17.32c3.12,12.14.66,14.08,3.52,18.76,6.35,10.39,20.14,4,33.32,15.9A38.32,38.32,0,0,1,308,156a42.74,42.74,0,0,1-1.23,27.18"/><path class="cls-9" d="M201.16,110.62c-1.84,4.16-4.82,10.75-8.71,18.8-7.11,14.71-9.09,17.38-8.55,22.62.93,9.09,8.68,18.6,8.68,18.6"/><path class="cls-10" d="M216.23,142.51h25.39c20.08,0,42.07,14.37,55.27,28.41,10.56,11.23,18.29,24.88,24.15,39.14,7.64,18.57,15.12,44.3,5.78,63.51-1.39,2.87-4.56,9.17-11.26,12.56-7.38,3.74-15.09,1.51-17.48,1.51l-153.78,0c-3.7-35.9,3.42-62.94,8.56-77.7,4.77-13.71,10.36-29.19,24.93-43.88A97.17,97.17,0,0,1,216.23,142.51Z"/><polygon class="cls-11" points="215.07 142.51 197.34 288.3 185.88 288.21 203.64 147.06 215.07 142.51"/><path class="cls-12" d="M228.88,153.24h0a12.87,12.87,0,0,0,12.92-12.82l.11-27.72-25.76-.09-.1,27.71A12.86,12.86,0,0,0,228.88,153.24Z"/><path class="cls-13" d="M216.08,132.56l16.77-8.62a19.65,19.65,0,0,1-7.11,13,19,19,0,0,1-9.68,3.88Z"/><path class="cls-12" d="M242.53,104.12c.08-.42,1.19-1.05,1.53-1.27a7.84,7.84,0,0,1,1.83-.86,7.5,7.5,0,0,1,3.93-.21,6.93,6.93,0,0,1,5.27,5.39,7.83,7.83,0,0,1-.76,4.53,11.61,11.61,0,0,1-4.69,5.07,12.76,12.76,0,0,1-5.52,1.63,32.5,32.5,0,0,1-4.32-.22Z"/><path class="cls-12" d="M246.06,104.39a33,33,0,0,1-11.95,20.68c-1.81,1.42-13.85,10.85-24.86,6.25-14.15-5.92-12.61-29.17-12.51-30.43.34-4.25,1.33-16.79,11.71-23.48,8.47-5.45,17.65-3.45,19-3.14a25.79,25.79,0,0,1,15.46,11.1C247.72,93.14,246.56,101,246.06,104.39Z"/><path class="cls-8" d="M204.77,100.91a2.78,2.78,0,1,1-2.3-3.63A3.07,3.07,0,0,1,204.77,100.91Z"/><path class="cls-8" d="M221.13,103a2.79,2.79,0,1,1-2.3-3.62A3.07,3.07,0,0,1,221.13,103Z"/><path class="cls-14" d="M209.71,103.63,207.2,107a1.31,1.31,0,0,0,.38,1.91l2.3,1.4"/><path class="cls-13" d="M226.61,111.51a3.71,3.71,0,1,1-3.22-4.15A3.72,3.72,0,0,1,226.61,111.51Z"/><path class="cls-14" d="M244.26,113.43a6.89,6.89,0,0,1,2.17-5.17,6.72,6.72,0,0,1,4.31-1.67"/><path class="cls-14" d="M246.22,108.81a2.92,2.92,0,0,1,3.41,3.16"/><path class="cls-13" d="M198.67,105.64a3.61,3.61,0,0,0-2,.31,54.44,54.44,0,0,0,.7,7l.36.08a3.71,3.71,0,0,0,.93-7.37Z"/><path class="cls-14" d="M206.3,117.11a7.66,7.66,0,0,1,9.35-2"/><path class="cls-8" d="M195.58,94.49h16.21s.61-5.27,2.21-7.87a15.22,15.22,0,0,1,4.06-4.21A23.48,23.48,0,0,0,217,86.06a18.13,18.13,0,0,0-.52,4.3s0,.7.4,4.13H230.9a10,10,0,0,1-.42-5.73,10.18,10.18,0,0,1,2.37-4.59,27.92,27.92,0,0,0,.57,9.71,32.94,32.94,0,0,0,3.48,8.46,42.54,42.54,0,0,0,2.9,4.63,17.58,17.58,0,0,1,3.46-3.34c1.55-.94,3.13-1.78,3.13-1.78a23.76,23.76,0,0,0,.17-8,24.16,24.16,0,0,0-6.4-13A25.35,25.35,0,0,0,226,73.55a26.86,26.86,0,0,0-10.39.15,26.55,26.55,0,0,0-6.52,2.39A25.25,25.25,0,0,0,197.92,87,24.11,24.11,0,0,0,195.58,94.49Z"/><path class="cls-15" d="M212.8,143.72S197.11,208,195.28,229.55s-2.52,58.75-2.52,58.75l-48.46-.62a161.71,161.71,0,0,1,9-80.37c6.47-16.62,14.3-36.68,34.62-51.37A83.76,83.76,0,0,1,212.8,143.72Z"/><polygon class="cls-16" points="180.83 184.3 160.65 287.89 172.73 287.89 180.83 184.3"/><path class="cls-9" d="M184.35,165.8c-1.11,6.23-2.84,16.65-4.39,29.66-1.9,15.94-1.61,19.77-4.73,60.5-.94,12.22-2.5,31.93-2.5,31.93h0"/><path class="cls-12" d="M228.35,264.75a19,19,0,0,1,3.5,5,23.81,23.81,0,0,1,2,10.42,34.63,34.63,0,0,1-.16,3.82s-23.69-7.64-27.21-7.34c-3.09.27-18.53,4.22-22.16,5.15a2.84,2.84,0,0,1-1.53,0l-5.2-1.6-4.9.21a2.37,2.37,0,0,1-2.25-3.34,10,10,0,0,1,.73-1.31,47.56,47.56,0,0,1,4.28-5.5l-7.86,1.42c-.76,0-2-.1-2.43-.87-.64-1.14.93-3.06,2-4.35a22.51,22.51,0,0,1,6.08-5.1,45.26,45.26,0,0,1,10.62-4.86,47.84,47.84,0,0,1,26.41-1.16A44.75,44.75,0,0,1,228.35,264.75Z"/><path class="cls-13" d="M227.1,263.71a13.05,13.05,0,0,1-2.85,9.86A13.3,13.3,0,0,1,214,278.09L233.72,284a81.6,81.6,0,0,0-.2-8.81c-.35-1.73-1.57-5.75-2.82-7.47A39.89,39.89,0,0,0,227.1,263.71Z"/><path class="cls-9" d="M177.62,280.15A41.23,41.23,0,0,1,203.38,267"/><path class="cls-9" d="M172.72,280.36a30.29,30.29,0,0,1,10.48-11.07s2.17-1.3,13.53-5.58h0"/><path class="cls-9" d="M175.13,270.28A19.81,19.81,0,0,1,183.2,263a44.86,44.86,0,0,1,9.79-2.76h0"/><path class="cls-15" d="M244.26,142.51s-5,36.82-5.64,58.83-1.4,59.62-1.4,59.62l-8.87,3.79s4.24,12.49,4.5,16.39a54.82,54.82,0,0,1,0,7.16c13-.25,23.51.07,30.76.41,6.16.29,15.35.34,33.71.46,6.53,0,12,0,18.24-3a34.14,34.14,0,0,0,11.57-9.8c3-4.09,7.67-12.74,5-34.17a124,124,0,0,0-26.83-64c-12.5-15.29-24.83-22.7-28.27-24.67a89.53,89.53,0,0,0-21.46-8.91A82.89,82.89,0,0,0,244.26,142.51Z"/><path class="cls-16" d="M274,212.89a58.26,58.26,0,0,1-5.45,27.28,57.37,57.37,0,0,1-9.17,13.75L278.36,249Z"/><path class="cls-9" d="M299.92,244.22s-55.35,13.61-62.7,16.74l-8.87,3.79"/><path class="cls-17" d="M304.2,186.9s27.21,51.21,19.1,72.15c-1.23,3.2-4,10.13-10.82,15.16-6.42,4.72-13.33,5.47-25.25,5.78a389.55,389.55,0,0,1-40.82-1.07"/><path class="cls-9" d="M296.24,168.26c-11.23,4.45-16.46,10.44-19.1,14.51,0,0-8.11,12.49,1.88,66.68h0"/><path class="cls-18" d="M156.6,280.28h78.11a0,0,0,0,1,0,0v5.06a3.84,3.84,0,0,1-3.84,3.84H156.6a0,0,0,0,1,0,0v-8.9A0,0,0,0,1,156.6,280.28Z"/><path class="cls-18" d="M164.73,289.17H62.24a4.92,4.92,0,0,1-4.76-4.24L48.17,208.8a3.67,3.67,0,0,1,3.72-4.24h102.5a4.94,4.94,0,0,1,4.76,4.24l9.31,76.13A3.68,3.68,0,0,1,164.73,289.17Z"/><path class="cls-19" d="M158.73,289.17H56.24a4.92,4.92,0,0,1-4.76-4.24L42.17,208.8a3.67,3.67,0,0,1,3.72-4.24h102.5a4.94,4.94,0,0,1,4.76,4.24l9.31,76.13A3.68,3.68,0,0,1,158.73,289.17Z"/><path class="cls-20" d="M42.17,208.8c.74-.2,3.46,23.53,19,44.9a78.16,78.16,0,0,0,15.74,16.66s8.36,6.51,39.52,18.81h-56c-2.12,0-4.77.47-6.67-.72-1.57-1-2.25-2.92-2.48-4.76-.16-1.3-.14-2.61-.28-3.92s-.4-2.56-.56-3.85q-.51-4.23-1-8.45-.84-6.92-1.69-13.82-.9-7.46-1.82-14.9-.84-6.93-1.69-13.84c-.43-3.54-.8-7.09-1.3-10.63C42.27,210.24,42,208.85,42.17,208.8Z"/><path class="cls-9" d="M45.89,204.56h102.5a4.94,4.94,0,0,1,4.76,4.24l9.31,76.13"/><path class="cls-10" d="M105.28,244.75a5.91,5.91,0,1,1-5.91-5.91A5.91,5.91,0,0,1,105.28,244.75Z"/><path class="cls-17" d="M324.07,167h11.38a8.58,8.58,0,0,1,8.56,9.23l-3.47,46.26"/><rect class="cls-3" x="0.5" y="120.68" width="139.28" height="99.92" rx="10.46"/><path class="cls-4" d="M11,120.68H129.32a10.46,10.46,0,0,1,10.46,10.46v4.73a0,0,0,0,1,0,0H.5a0,0,0,0,1,0,0v-4.73A10.46,10.46,0,0,1,11,120.68Z"/><path class="cls-3" d="M116.48,130.57H34.08a2.29,2.29,0,0,1-2.29-2.29h0a2.29,2.29,0,0,1,2.29-2.3h82.4a2.3,2.3,0,0,1,2.29,2.3h0A2.3,2.3,0,0,1,116.48,130.57Z"/><path class="cls-3" d="M10.5,128.28a1.87,1.87,0,1,1-1.87-1.88A1.87,1.87,0,0,1,10.5,128.28Z"/><path class="cls-3" d="M17.5,128.28a1.88,1.88,0,1,1-1.88-1.88A1.88,1.88,0,0,1,17.5,128.28Z"/><path class="cls-3" d="M24.37,128.28a1.87,1.87,0,1,1-1.87-1.88A1.87,1.87,0,0,1,24.37,128.28Z"/><polygon class="cls-5" points="80.08 157.74 68.31 169.52 56.53 157.74 49.42 164.85 61.2 176.62 49.42 188.4 56.53 195.5 68.31 183.73 80.08 195.51 87.19 188.4 75.41 176.62 87.19 164.85 80.08 157.74"/><rect class="cls-9" x="0.5" y="120.68" width="139.28" height="99.92" rx="10.46"/><line class="cls-21" x1="178.13" y1="66.43" x2="193.6" y2="72.85"/><line class="cls-21" x1="177.47" y1="49.5" x2="197.05" y2="68.09"/><line class="cls-21" x1="194.48" y1="49.22" x2="201.68" y2="64.34"/><path class="cls-15" d="M381.83,132.29a40.18,40.18,0,0,1,4.23-8.56,16,16,0,0,1,5.63-4.93,16.86,16.86,0,0,1,4.28-1.68,32.58,32.58,0,0,0,4.26-1.33,14.6,14.6,0,0,0,3.68-2.07,9,9,0,0,0,2.71-4c1.16-3,1.13-5.51-.09-7.36a10.63,10.63,0,0,0-5.29-4.11c-3.3-1.26-5.93-1.21-7.87.15a17.16,17.16,0,0,0-5.18,6.55l-12.06-4.6a23.73,23.73,0,0,1,4.67-7.76,18.88,18.88,0,0,1,6.68-4.73,20,20,0,0,1,8.17-1.49,26.73,26.73,0,0,1,9.1,1.86q10.1,3.86,14.37,10.2t.74,15.6a21.78,21.78,0,0,1-2.6,5,14.65,14.65,0,0,1-3.38,3.38,19.41,19.41,0,0,1-4.29,2.27q-2.38.92-5.27,1.74a27.83,27.83,0,0,0-4.44,1.68,10.89,10.89,0,0,0-3,2.12,11.55,11.55,0,0,0-2,2.81,34.43,34.43,0,0,0-1.59,3.62Zm-7.26,17.91L379.24,138l12.63,4.81L387.19,155Z"/><path class="cls-15" d="M56.3,69a25.81,25.81,0,0,1-1.64-5.73,9.89,9.89,0,0,1,.54-4.63A10.33,10.33,0,0,1,56.47,56a19.76,19.76,0,0,0,1.41-2.4,9,9,0,0,0,.83-2.5,5.59,5.59,0,0,0-.43-3q-1.11-2.85-3.13-3.37a6.61,6.61,0,0,0-4.16.32c-2.06.81-3.25,1.93-3.57,3.38a10.7,10.7,0,0,0,.35,5.19l-7.5,2.93a14.75,14.75,0,0,1-1.09-5.54,11.79,11.79,0,0,1,1.1-5A12.3,12.3,0,0,1,43.43,42a16.58,16.58,0,0,1,5-3q6.29-2.46,10.92-1.32t6.88,6.89a13.26,13.26,0,0,1,.9,3.4A9.24,9.24,0,0,1,67,51a11.67,11.67,0,0,1-1,2.85c-.47.94-1,2-1.7,3a18.45,18.45,0,0,0-1.35,2.64,6.93,6.93,0,0,0-.5,2.24,7.14,7.14,0,0,0,.24,2.15,22.85,22.85,0,0,0,.78,2.34Zm4.16,11.31-3-7.62,7.85-3.07,3,7.62Z"/><polygon class="cls-10" points="406.9 287.89 374.99 287.89 372.87 253.92 409.02 253.92 406.9 287.89"/><path class="cls-22" d="M404.7,253.92H377.19V225a13.76,13.76,0,0,1,13.75-13.76h0A13.76,13.76,0,0,1,404.7,225Z"/><g class="cls-23"><path class="cls-24" d="M382.22,215.41c0,3.85-2.31,3.85-2.31,7.7s2.31,3.85,2.31,7.7-2.31,3.85-2.31,7.7,2.31,3.85,2.31,7.71-2.31,3.85-2.31,7.7"/><path class="cls-24" d="M388.27,211.79c0,4.21-2.53,4.21-2.53,8.42s2.53,4.22,2.53,8.43-2.53,4.21-2.53,8.42,2.53,4.22,2.53,8.43-2.53,4.22-2.53,8.43"/><path class="cls-24" d="M397.16,212.14c0,4.18-2.5,4.18-2.5,8.35s2.5,4.18,2.5,8.36-2.5,4.18-2.5,8.35,2.5,4.18,2.5,8.36-2.5,4.18-2.5,8.36"/><path class="cls-24" d="M403.38,217.18c0,3.67-2.21,3.67-2.21,7.34s2.21,3.68,2.21,7.35-2.21,3.68-2.21,7.35,2.21,3.68,2.21,7.35-2.21,3.68-2.21,7.35"/></g><path class="cls-11" d="M409,253.92l-2.12,34H375a48.26,48.26,0,0,0,34-34Z"/><path class="cls-24" d="M407.2,259.32a48.27,48.27,0,0,1-17.57,21.84"/></g></g></svg>