<svg width="1535" height="1621" viewBox="0 0 1535 1621" fill="none" xmlns="http://www.w3.org/2000/svg">
<g opacity="0.5" filter="url(#filter0_f_5701_18837)">
<path d="M912.47 627.479C882.617 669.565 877.054 724.218 897.037 771.296L998.117 1126.46C1001.63 1139.35 983.904 1146.88 977.07 1135.4L792.037 816.52C771.819 768.888 728.876 735.478 677.865 727.717L100 638.339L245.863 906.518L524.925 949.513C564.17 955.732 597.343 981.524 612.624 1017.53L873.656 1496.97C884.806 1517.08 909.347 1525.61 930.394 1516.68L1304.81 1357.75C1325.86 1348.82 1336.76 1325.23 1330.04 1303.24L1166.49 782.419C1150.98 745.865 1155.47 704.086 1178.49 672.088L1341.41 441.478L1249.83 150.259L912.47 627.479Z" fill="url(#paint0_linear_5701_18837)"/>
<path fill-rule="evenodd" clip-rule="evenodd" d="M224.424 437.14L100 638.335L355.847 677.458L224.424 437.14ZM287.001 981.87L514.498 1017.34C532.66 1020.09 548.423 1031.05 557.373 1047.51L662.182 1238.99L434.451 1202.97C416.289 1200.22 400.525 1189.26 391.576 1172.8L287.001 981.87ZM1018.67 100L1100.8 361.243L1250.38 150.022L1018.67 100ZM1367.04 523.416L1234.52 711.704C1223.89 726.679 1220.82 745.63 1226.44 763.505L1291.37 971.912L1423.66 783.069C1434.3 768.095 1437.36 749.144 1431.74 731.269L1367.04 523.416Z" fill="url(#paint1_linear_5701_18837)"/>
</g>
<defs>
<filter id="filter0_f_5701_18837" x="-33" y="-40" width="1600" height="1700" filterUnits="userSpaceOnUse" color-interpolation-filters="sRGB">
<feFlood flood-opacity="0" result="BackgroundImageFix"/>
<feBlend mode="normal" in="SourceGraphic" in2="BackgroundImageFix" result="shape"/>
<feGaussianBlur stdDeviation="50" result="effect1_foregroundBlur_5701_18837"/>
</filter>
<linearGradient id="paint0_linear_5701_18837" x1="767.254" y1="100" x2="686.892" y2="1450.52" gradientUnits="userSpaceOnUse">
<stop stop-color="#B867FF"/>
<stop offset="1" stop-color="#753FFF"/>
</linearGradient>
<linearGradient id="paint1_linear_5701_18837" x1="767.254" y1="100" x2="686.892" y2="1450.52" gradientUnits="userSpaceOnUse">
<stop stop-color="#B867FF"/>
<stop offset="1" stop-color="#753FFF"/>
</linearGradient>
</defs>
</svg>
