<svg width="512" height="438" viewBox="0 0 512 438" fill="none" xmlns="http://www.w3.org/2000/svg">
<path d="M494.198 269.259L390.571 176H121.43L17.8032 269.259L3.53125 253.408L113.238 154.667H398.763L508.47 253.408L494.198 269.259Z" fill="#000"/>
<path d="M480 437.334H32C14.352 437.334 0 422.982 0 405.334V250.667H170.667V261.334C170.667 287.803 192.197 309.334 218.667 309.334H293.333C319.803 309.334 341.333 287.803 341.333 261.334V250.667H512V405.334C512 422.982 497.648 437.334 480 437.334ZM21.3333 272V405.334C21.3333 411.216 26.1173 416 32 416H480C485.883 416 490.667 411.216 490.667 405.334V272H361.851C356.704 305.19 327.936 330.667 293.333 330.667H218.667C184.064 330.667 155.296 305.19 150.149 272H21.3333Z" fill="#000"/>
<path d="M190.334 68.9488L153 10.2812L135.001 21.7351L172.335 80.4026L190.334 68.9488Z" fill="#000"/>
<path d="M382.338 21.7174L364.339 10.2656L327.012 68.9331L345.011 80.3849L382.338 21.7174Z" fill="#000"/>
<path d="M266.666 0H245.333V69.3333H266.666V0Z" fill="#000"/>
</svg>
