<svg width="33" height="32" viewBox="0 0 33 32" fill="none" xmlns="http://www.w3.org/2000/svg">
<g id="104490_apple_icon 1">
<g id="Group">
<path id="Vector" d="M23.1784 14.924C23.145 11.5695 25.9138 9.96063 26.0376 9.87935C24.4815 7.6041 22.0571 7.2919 21.1943 7.25637C19.1327 7.04699 17.1697 8.47071 16.1238 8.47071C15.0801 8.47071 13.4642 7.28706 11.7547 7.3172C9.50581 7.35057 7.43294 8.62519 6.27567 10.6383C3.94012 14.6899 5.67819 20.6942 7.95399 23.9825C9.06659 25.5898 10.3934 27.3984 12.1342 27.3322C13.812 27.2659 14.445 26.247 16.4732 26.247C18.5013 26.247 19.0708 27.3322 20.8455 27.2982C22.6498 27.2654 23.7936 25.6603 24.8971 24.0466C26.1744 22.1793 26.7002 20.3713 26.7315 20.2798C26.6922 20.2615 23.2144 18.9293 23.1784 14.924Z" fill="white"/>
<path id="Vector_2" d="M19.844 5.07966C20.7671 3.95898 21.3926 2.40177 21.2225 0.851562C19.8903 0.905389 18.2776 1.73701 17.3211 2.85661C16.4642 3.85025 15.7149 5.43222 15.9157 6.95444C17.4019 7.06963 18.9176 6.19818 19.844 5.07966Z" fill="white"/>
</g>
</g>
</svg>
